<svg width="24" height="24" viewBox="0 0 24 24" xmlns="http://www.w3.org/2000/svg"><title>globe</title><path d="M14.894 14a18.728 18.728 0 0 0 0-4H9.106A18.728 18.728 0 0 0 9 12v1a1 1 0 0 1-2 0v-1c0-.683.032-1.353.093-2H4.252A8.014 8.014 0 0 0 4 12c0 1.478.4 2.893 1.143 4.124a3 3 0 1 1-1.62 1.183A9.958 9.958 0 0 1 2 12C2 6.477 6.477 2 12 2s10 4.477 10 10-4.477 10-10 10a1 1 0 0 1 0-2c.966 0 1.99-1.593 2.557-4H11a1 1 0 0 1 0-2h3.894zm4.854 0c.164-.64.252-1.31.252-2s-.088-1.36-.252-2h-2.84c.06.647.092 1.317.092 2s-.032 1.353-.093 2h2.841zm-.818 2H16.61c-.245 1.192-.6 2.267-1.05 3.166A8.036 8.036 0 0 0 18.93 16zm-4.373-8C13.99 5.593 12.966 4 12 4s-1.99 1.593-2.557 4h5.114zM7.389 8c.245-1.192.6-2.267 1.05-3.166A8.036 8.036 0 0 0 5.07 8H7.39zm11.54 0a8.036 8.036 0 0 0-3.368-3.166c.45.9.805 1.974 1.05 3.166h2.319zM6 20a1 1 0 1 0 0-2 1 1 0 0 0 0 2z" fill="#000" fill-rule="nonzero"/></svg>