<?xml version="1.0" encoding="iso-8859-1"?>
<!-- Generator: Adobe Illustrator 19.0.0, SVG Export Plug-In . SVG Version: 6.00 Build 0)  -->
<svg version="1.1" id="Layer_1" xmlns="http://www.w3.org/2000/svg" xmlns:xlink="http://www.w3.org/1999/xlink" x="0px" y="0px"
	 viewBox="0 0 274.521 274.521" style="enable-background:new 0 0 274.521 274.521;" xml:space="preserve">
<g>
	
		<rect x="69.641" y="173.26" transform="matrix(-0.7071 -0.7071 0.7071 -0.7071 24.7871 377.9649)" style="fill:#13829B;" width="42.064" height="21.178"/>
	
		<rect x="8.83" y="234.07" transform="matrix(-0.7071 -0.7071 0.7071 -0.7071 -122.0229 438.7752)" style="fill:#13829B;" width="42.064" height="21.178"/>
	
		<rect x="39.236" y="181.843" transform="matrix(-0.7071 -0.7071 0.7071 -0.7071 -48.617 408.3697)" style="fill:#28D2E4;" width="42.064" height="64.821"/>
	<circle style="fill:#28D2E4;" cx="187.865" cy="86.656" r="79.136"/>
	<path style="fill:#FFDB77;" d="M131.908,142.613c-3.132-3.132-5.931-6.47-8.428-9.957L88.966,167.17l18.385,18.385l34.514-34.514
		C138.378,148.544,135.04,145.745,131.908,142.613z"/>
	<g>
		<circle style="fill:#FFDB77;" cx="187.865" cy="86.656" r="50.844"/>
		<g>
			<path style="fill:#22313F;" d="M249.126,25.396c-33.857-33.859-88.659-33.864-122.522-0.001
				C97.82,54.18,93.583,98.339,113.856,131.673l-24.89,24.891c-3.688-3.689-8.319-3.038-10.983-0.376
				C21.399,212.77,17.721,216.45,2.196,231.975c-2.929,2.929-2.928,7.677,0,10.606l29.743,29.743c2.93,2.929,7.678,2.928,10.606,0
				c24.421-24.421,37.482-37.482,75.786-75.786c2.703-2.703,3.28-7.327-0.376-10.983l24.891-24.89
				c33.624,20.449,77.7,15.828,106.276-12.748C282.982,114.061,282.99,59.258,249.126,25.396z M102.424,191.234l-4.368,4.368
				l-19.137-19.137l4.368-4.368l0.367,0.367c0.003,0.003,0.006,0.007,0.009,0.01l18.385,18.384L102.424,191.234z M52.22,241.439
				l-19.137-19.138l35.23-35.229l19.137,19.137L52.22,241.439z M18.108,237.277l4.368-4.369l19.137,19.138l-4.369,4.368
				L18.108,237.277z M130.62,151.679l-23.269,23.269l-7.778-7.778l23.269-23.269C124.98,146.334,127.542,148.972,130.62,151.679z
				 M238.52,137.309c-0.001,0-0.001,0-0.001,0c-28.145,28.147-73.622,27.688-101.308,0c-27.812-27.814-28.024-73.284,0-101.307
				c27.995-27.997,73.308-28.001,101.309,0C266.516,63.998,266.519,109.31,238.52,137.309z"/>
			<path style="fill:#22313F;" d="M229.121,45.401c-22.801-22.803-59.707-22.805-82.512-0.001
				c-22.802,22.802-22.803,59.706,0,82.512c22.749,22.746,59.761,22.748,82.512,0C251.922,105.109,251.927,68.204,229.121,45.401z
				 M218.514,117.304c-16.94,16.94-44.356,16.941-61.297,0c-16.938-16.936-16.943-44.355,0-61.298
				c16.94-16.94,44.355-16.942,61.298,0.001C235.454,72.947,235.457,100.363,218.514,117.304z"/>
		</g>
	</g>
</g>
<g>
</g>
<g>
</g>
<g>
</g>
<g>
</g>
<g>
</g>
<g>
</g>
<g>
</g>
<g>
</g>
<g>
</g>
<g>
</g>
<g>
</g>
<g>
</g>
<g>
</g>
<g>
</g>
<g>
</g>
</svg>
